<?xml version="1.0" encoding="utf-8" standalone="no"?>
<!DOCTYPE svg PUBLIC "-//W3C//DTD SVG 1.1//EN"
  "http://www.w3.org/Graphics/SVG/1.1/DTD/svg11.dtd">
<svg xmlns:xlink="http://www.w3.org/1999/xlink" width="518.4pt" height="331.2pt" viewBox="0 0 518.4 331.2" xmlns="http://www.w3.org/2000/svg" version="1.1">
 <metadata>
  <rdf:RDF xmlns:dc="http://purl.org/dc/elements/1.1/" xmlns:cc="http://creativecommons.org/ns#" xmlns:rdf="http://www.w3.org/1999/02/22-rdf-syntax-ns#">
   <cc:Work>
    <dc:type rdf:resource="http://purl.org/dc/dcmitype/StillImage"/>
    <dc:date>2026-06-16T07:16:26.128908</dc:date>
    <dc:format>image/svg+xml</dc:format>
    <dc:creator>
     <cc:Agent>
      <dc:title>Matplotlib v3.10.8, https://matplotlib.org/</dc:title>
     </cc:Agent>
    </dc:creator>
   </cc:Work>
  </rdf:RDF>
 </metadata>
 <defs>
  <style type="text/css">*{stroke-linejoin: round; stroke-linecap: butt}</style>
 </defs>
 <g id="figure_1">
  <g id="patch_1">
   <path d="M 0 331.2 
L 518.4 331.2 
L 518.4 0 
L 0 0 
z
" style="fill: #ffffff"/>
  </g>
  <g id="axes_1">
   <g id="patch_2">
    <path d="M 49.43 284.38 
L 507.06 284.38 
L 507.06 28.86 
L 49.43 28.86 
z
" style="fill: #ffffff"/>
   </g>
   <g id="line2d_1">
    <path d="M 70.231364 164.916104 
L 486.258636 40.474545 
" clip-path="url(#p2ba2839ee3)" style="fill: none; stroke-dasharray: 4,3; stroke-dashoffset: 0; stroke: #bdbdbd"/>
   </g>
   <g id="matplotlib.axis_1">
    <g id="xtick_1">
     <g id="line2d_2">
      <path d="M 97.966515 284.38 
L 97.966515 28.86 
" clip-path="url(#p2ba2839ee3)" style="fill: none; stroke: #d9d9d9; stroke-width: 0.7; stroke-linecap: square"/>
     </g>
     <g id="line2d_3">
      <defs>
       <path id="m99840cb73d" d="M 0 0 
L 0 3.5 
" style="stroke: #000000; stroke-width: 0.8"/>
      </defs>
      <g>
       <use xlink:href="#m99840cb73d" x="97.966515" y="284.38" style="stroke: #000000; stroke-width: 0.8"/>
      </g>
     </g>
     <g id="text_1">
      <!-- 7 -->
      <g transform="translate(94.626203 299.358359) scale(0.105 -0.105)">
       <defs>
        <path id="DejaVuSans-37" d="M 525 4666 
L 3525 4666 
L 3525 4397 
L 1831 0 
L 1172 0 
L 2766 4134 
L 525 4134 
L 525 4666 
z
" transform="scale(0.015625)"/>
       </defs>
       <use xlink:href="#DejaVuSans-37"/>
      </g>
     </g>
    </g>
    <g id="xtick_2">
     <g id="line2d_4">
      <path d="M 153.436818 284.38 
L 153.436818 28.86 
" clip-path="url(#p2ba2839ee3)" style="fill: none; stroke: #d9d9d9; stroke-width: 0.7; stroke-linecap: square"/>
     </g>
     <g id="line2d_5">
      <g>
       <use xlink:href="#m99840cb73d" x="153.436818" y="284.38" style="stroke: #000000; stroke-width: 0.8"/>
      </g>
     </g>
     <g id="text_2">
      <!-- 8 -->
      <g transform="translate(150.096506 299.358359) scale(0.105 -0.105)">
       <defs>
        <path id="DejaVuSans-38" d="M 2034 2216 
Q 1584 2216 1326 1975 
Q 1069 1734 1069 1313 
Q 1069 891 1326 650 
Q 1584 409 2034 409 
Q 2484 409 2743 651 
Q 3003 894 3003 1313 
Q 3003 1734 2745 1975 
Q 2488 2216 2034 2216 
z
M 1403 2484 
Q 997 2584 770 2862 
Q 544 3141 544 3541 
Q 544 4100 942 4425 
Q 1341 4750 2034 4750 
Q 2731 4750 3128 4425 
Q 3525 4100 3525 3541 
Q 3525 3141 3298 2862 
Q 3072 2584 2669 2484 
Q 3125 2378 3379 2068 
Q 3634 1759 3634 1313 
Q 3634 634 3220 271 
Q 2806 -91 2034 -91 
Q 1263 -91 848 271 
Q 434 634 434 1313 
Q 434 1759 690 2068 
Q 947 2378 1403 2484 
z
M 1172 3481 
Q 1172 3119 1398 2916 
Q 1625 2713 2034 2713 
Q 2441 2713 2670 2916 
Q 2900 3119 2900 3481 
Q 2900 3844 2670 4047 
Q 2441 4250 2034 4250 
Q 1625 4250 1398 4047 
Q 1172 3844 1172 3481 
z
" transform="scale(0.015625)"/>
       </defs>
       <use xlink:href="#DejaVuSans-38"/>
      </g>
     </g>
    </g>
    <g id="xtick_3">
     <g id="line2d_6">
      <path d="M 208.907121 284.38 
L 208.907121 28.86 
" clip-path="url(#p2ba2839ee3)" style="fill: none; stroke: #d9d9d9; stroke-width: 0.7; stroke-linecap: square"/>
     </g>
     <g id="line2d_7">
      <g>
       <use xlink:href="#m99840cb73d" x="208.907121" y="284.38" style="stroke: #000000; stroke-width: 0.8"/>
      </g>
     </g>
     <g id="text_3">
      <!-- 9 -->
      <g transform="translate(205.566809 299.358359) scale(0.105 -0.105)">
       <defs>
        <path id="DejaVuSans-39" d="M 703 97 
L 703 672 
Q 941 559 1184 500 
Q 1428 441 1663 441 
Q 2288 441 2617 861 
Q 2947 1281 2994 2138 
Q 2813 1869 2534 1725 
Q 2256 1581 1919 1581 
Q 1219 1581 811 2004 
Q 403 2428 403 3163 
Q 403 3881 828 4315 
Q 1253 4750 1959 4750 
Q 2769 4750 3195 4129 
Q 3622 3509 3622 2328 
Q 3622 1225 3098 567 
Q 2575 -91 1691 -91 
Q 1453 -91 1209 -44 
Q 966 3 703 97 
z
M 1959 2075 
Q 2384 2075 2632 2365 
Q 2881 2656 2881 3163 
Q 2881 3666 2632 3958 
Q 2384 4250 1959 4250 
Q 1534 4250 1286 3958 
Q 1038 3666 1038 3163 
Q 1038 2656 1286 2365 
Q 1534 2075 1959 2075 
z
" transform="scale(0.015625)"/>
       </defs>
       <use xlink:href="#DejaVuSans-39"/>
      </g>
     </g>
    </g>
    <g id="xtick_4">
     <g id="line2d_8">
      <path d="M 264.377424 284.38 
L 264.377424 28.86 
" clip-path="url(#p2ba2839ee3)" style="fill: none; stroke: #d9d9d9; stroke-width: 0.7; stroke-linecap: square"/>
     </g>
     <g id="line2d_9">
      <g>
       <use xlink:href="#m99840cb73d" x="264.377424" y="284.38" style="stroke: #000000; stroke-width: 0.8"/>
      </g>
     </g>
     <g id="text_4">
      <!-- 10 -->
      <g transform="translate(257.696799 299.358359) scale(0.105 -0.105)">
       <defs>
        <path id="DejaVuSans-31" d="M 794 531 
L 1825 531 
L 1825 4091 
L 703 3866 
L 703 4441 
L 1819 4666 
L 2450 4666 
L 2450 531 
L 3481 531 
L 3481 0 
L 794 0 
L 794 531 
z
" transform="scale(0.015625)"/>
        <path id="DejaVuSans-30" d="M 2034 4250 
Q 1547 4250 1301 3770 
Q 1056 3291 1056 2328 
Q 1056 1369 1301 889 
Q 1547 409 2034 409 
Q 2525 409 2770 889 
Q 3016 1369 3016 2328 
Q 3016 3291 2770 3770 
Q 2525 4250 2034 4250 
z
M 2034 4750 
Q 2819 4750 3233 4129 
Q 3647 3509 3647 2328 
Q 3647 1150 3233 529 
Q 2819 -91 2034 -91 
Q 1250 -91 836 529 
Q 422 1150 422 2328 
Q 422 3509 836 4129 
Q 1250 4750 2034 4750 
z
" transform="scale(0.015625)"/>
       </defs>
       <use xlink:href="#DejaVuSans-31"/>
       <use xlink:href="#DejaVuSans-30" transform="translate(63.623047 0)"/>
      </g>
     </g>
    </g>
    <g id="xtick_5">
     <g id="line2d_10">
      <path d="M 319.847727 284.38 
L 319.847727 28.86 
" clip-path="url(#p2ba2839ee3)" style="fill: none; stroke: #d9d9d9; stroke-width: 0.7; stroke-linecap: square"/>
     </g>
     <g id="line2d_11">
      <g>
       <use xlink:href="#m99840cb73d" x="319.847727" y="284.38" style="stroke: #000000; stroke-width: 0.8"/>
      </g>
     </g>
     <g id="text_5">
      <!-- 11 -->
      <g transform="translate(313.167102 299.358359) scale(0.105 -0.105)">
       <use xlink:href="#DejaVuSans-31"/>
       <use xlink:href="#DejaVuSans-31" transform="translate(63.623047 0)"/>
      </g>
     </g>
    </g>
    <g id="xtick_6">
     <g id="line2d_12">
      <path d="M 375.31803 284.38 
L 375.31803 28.86 
" clip-path="url(#p2ba2839ee3)" style="fill: none; stroke: #d9d9d9; stroke-width: 0.7; stroke-linecap: square"/>
     </g>
     <g id="line2d_13">
      <g>
       <use xlink:href="#m99840cb73d" x="375.31803" y="284.38" style="stroke: #000000; stroke-width: 0.8"/>
      </g>
     </g>
     <g id="text_6">
      <!-- 12 -->
      <g transform="translate(368.637405 299.358359) scale(0.105 -0.105)">
       <defs>
        <path id="DejaVuSans-32" d="M 1228 531 
L 3431 531 
L 3431 0 
L 469 0 
L 469 531 
Q 828 903 1448 1529 
Q 2069 2156 2228 2338 
Q 2531 2678 2651 2914 
Q 2772 3150 2772 3378 
Q 2772 3750 2511 3984 
Q 2250 4219 1831 4219 
Q 1534 4219 1204 4116 
Q 875 4013 500 3803 
L 500 4441 
Q 881 4594 1212 4672 
Q 1544 4750 1819 4750 
Q 2544 4750 2975 4387 
Q 3406 4025 3406 3419 
Q 3406 3131 3298 2873 
Q 3191 2616 2906 2266 
Q 2828 2175 2409 1742 
Q 1991 1309 1228 531 
z
" transform="scale(0.015625)"/>
       </defs>
       <use xlink:href="#DejaVuSans-31"/>
       <use xlink:href="#DejaVuSans-32" transform="translate(63.623047 0)"/>
      </g>
     </g>
    </g>
    <g id="xtick_7">
     <g id="line2d_14">
      <path d="M 430.788333 284.38 
L 430.788333 28.86 
" clip-path="url(#p2ba2839ee3)" style="fill: none; stroke: #d9d9d9; stroke-width: 0.7; stroke-linecap: square"/>
     </g>
     <g id="line2d_15">
      <g>
       <use xlink:href="#m99840cb73d" x="430.788333" y="284.38" style="stroke: #000000; stroke-width: 0.8"/>
      </g>
     </g>
     <g id="text_7">
      <!-- 13 -->
      <g transform="translate(424.107708 299.358359) scale(0.105 -0.105)">
       <defs>
        <path id="DejaVuSans-33" d="M 2597 2516 
Q 3050 2419 3304 2112 
Q 3559 1806 3559 1356 
Q 3559 666 3084 287 
Q 2609 -91 1734 -91 
Q 1441 -91 1130 -33 
Q 819 25 488 141 
L 488 750 
Q 750 597 1062 519 
Q 1375 441 1716 441 
Q 2309 441 2620 675 
Q 2931 909 2931 1356 
Q 2931 1769 2642 2001 
Q 2353 2234 1838 2234 
L 1294 2234 
L 1294 2753 
L 1863 2753 
Q 2328 2753 2575 2939 
Q 2822 3125 2822 3475 
Q 2822 3834 2567 4026 
Q 2313 4219 1838 4219 
Q 1578 4219 1281 4162 
Q 984 4106 628 3988 
L 628 4550 
Q 988 4650 1302 4700 
Q 1616 4750 1894 4750 
Q 2613 4750 3031 4423 
Q 3450 4097 3450 3541 
Q 3450 3153 3228 2886 
Q 3006 2619 2597 2516 
z
" transform="scale(0.015625)"/>
       </defs>
       <use xlink:href="#DejaVuSans-31"/>
       <use xlink:href="#DejaVuSans-33" transform="translate(63.623047 0)"/>
      </g>
     </g>
    </g>
    <g id="xtick_8">
     <g id="line2d_16">
      <path d="M 486.258636 284.38 
L 486.258636 28.86 
" clip-path="url(#p2ba2839ee3)" style="fill: none; stroke: #d9d9d9; stroke-width: 0.7; stroke-linecap: square"/>
     </g>
     <g id="line2d_17">
      <g>
       <use xlink:href="#m99840cb73d" x="486.258636" y="284.38" style="stroke: #000000; stroke-width: 0.8"/>
      </g>
     </g>
     <g id="text_8">
      <!-- 14 -->
      <g transform="translate(479.578011 299.358359) scale(0.105 -0.105)">
       <defs>
        <path id="DejaVuSans-34" d="M 2419 4116 
L 825 1625 
L 2419 1625 
L 2419 4116 
z
M 2253 4666 
L 3047 4666 
L 3047 1625 
L 3713 1625 
L 3713 1100 
L 3047 1100 
L 3047 0 
L 2419 0 
L 2419 1100 
L 313 1100 
L 313 1709 
L 2253 4666 
z
" transform="scale(0.015625)"/>
       </defs>
       <use xlink:href="#DejaVuSans-31"/>
       <use xlink:href="#DejaVuSans-34" transform="translate(63.623047 0)"/>
      </g>
     </g>
    </g>
    <g id="text_9">
     <!-- Input voltage  V$_{in}$  (V) -->
     <g transform="translate(221.86 313.522031) scale(0.105 -0.105)">
      <defs>
       <path id="DejaVuSans-49" d="M 628 4666 
L 1259 4666 
L 1259 0 
L 628 0 
L 628 4666 
z
" transform="scale(0.015625)"/>
       <path id="DejaVuSans-6e" d="M 3513 2113 
L 3513 0 
L 2938 0 
L 2938 2094 
Q 2938 2591 2744 2837 
Q 2550 3084 2163 3084 
Q 1697 3084 1428 2787 
Q 1159 2491 1159 1978 
L 1159 0 
L 581 0 
L 581 3500 
L 1159 3500 
L 1159 2956 
Q 1366 3272 1645 3428 
Q 1925 3584 2291 3584 
Q 2894 3584 3203 3211 
Q 3513 2838 3513 2113 
z
" transform="scale(0.015625)"/>
       <path id="DejaVuSans-70" d="M 1159 525 
L 1159 -1331 
L 581 -1331 
L 581 3500 
L 1159 3500 
L 1159 2969 
Q 1341 3281 1617 3432 
Q 1894 3584 2278 3584 
Q 2916 3584 3314 3078 
Q 3713 2572 3713 1747 
Q 3713 922 3314 415 
Q 2916 -91 2278 -91 
Q 1894 -91 1617 61 
Q 1341 213 1159 525 
z
M 3116 1747 
Q 3116 2381 2855 2742 
Q 2594 3103 2138 3103 
Q 1681 3103 1420 2742 
Q 1159 2381 1159 1747 
Q 1159 1113 1420 752 
Q 1681 391 2138 391 
Q 2594 391 2855 752 
Q 3116 1113 3116 1747 
z
" transform="scale(0.015625)"/>
       <path id="DejaVuSans-75" d="M 544 1381 
L 544 3500 
L 1119 3500 
L 1119 1403 
Q 1119 906 1312 657 
Q 1506 409 1894 409 
Q 2359 409 2629 706 
Q 2900 1003 2900 1516 
L 2900 3500 
L 3475 3500 
L 3475 0 
L 2900 0 
L 2900 538 
Q 2691 219 2414 64 
Q 2138 -91 1772 -91 
Q 1169 -91 856 284 
Q 544 659 544 1381 
z
M 1991 3584 
L 1991 3584 
z
" transform="scale(0.015625)"/>
       <path id="DejaVuSans-74" d="M 1172 4494 
L 1172 3500 
L 2356 3500 
L 2356 3053 
L 1172 3053 
L 1172 1153 
Q 1172 725 1289 603 
Q 1406 481 1766 481 
L 2356 481 
L 2356 0 
L 1766 0 
Q 1100 0 847 248 
Q 594 497 594 1153 
L 594 3053 
L 172 3053 
L 172 3500 
L 594 3500 
L 594 4494 
L 1172 4494 
z
" transform="scale(0.015625)"/>
       <path id="DejaVuSans-20" transform="scale(0.015625)"/>
       <path id="DejaVuSans-76" d="M 191 3500 
L 800 3500 
L 1894 563 
L 2988 3500 
L 3597 3500 
L 2284 0 
L 1503 0 
L 191 3500 
z
" transform="scale(0.015625)"/>
       <path id="DejaVuSans-6f" d="M 1959 3097 
Q 1497 3097 1228 2736 
Q 959 2375 959 1747 
Q 959 1119 1226 758 
Q 1494 397 1959 397 
Q 2419 397 2687 759 
Q 2956 1122 2956 1747 
Q 2956 2369 2687 2733 
Q 2419 3097 1959 3097 
z
M 1959 3584 
Q 2709 3584 3137 3096 
Q 3566 2609 3566 1747 
Q 3566 888 3137 398 
Q 2709 -91 1959 -91 
Q 1206 -91 779 398 
Q 353 888 353 1747 
Q 353 2609 779 3096 
Q 1206 3584 1959 3584 
z
" transform="scale(0.015625)"/>
       <path id="DejaVuSans-6c" d="M 603 4863 
L 1178 4863 
L 1178 0 
L 603 0 
L 603 4863 
z
" transform="scale(0.015625)"/>
       <path id="DejaVuSans-61" d="M 2194 1759 
Q 1497 1759 1228 1600 
Q 959 1441 959 1056 
Q 959 750 1161 570 
Q 1363 391 1709 391 
Q 2188 391 2477 730 
Q 2766 1069 2766 1631 
L 2766 1759 
L 2194 1759 
z
M 3341 1997 
L 3341 0 
L 2766 0 
L 2766 531 
Q 2569 213 2275 61 
Q 1981 -91 1556 -91 
Q 1019 -91 701 211 
Q 384 513 384 1019 
Q 384 1609 779 1909 
Q 1175 2209 1959 2209 
L 2766 2209 
L 2766 2266 
Q 2766 2663 2505 2880 
Q 2244 3097 1772 3097 
Q 1472 3097 1187 3025 
Q 903 2953 641 2809 
L 641 3341 
Q 956 3463 1253 3523 
Q 1550 3584 1831 3584 
Q 2591 3584 2966 3190 
Q 3341 2797 3341 1997 
z
" transform="scale(0.015625)"/>
       <path id="DejaVuSans-67" d="M 2906 1791 
Q 2906 2416 2648 2759 
Q 2391 3103 1925 3103 
Q 1463 3103 1205 2759 
Q 947 2416 947 1791 
Q 947 1169 1205 825 
Q 1463 481 1925 481 
Q 2391 481 2648 825 
Q 2906 1169 2906 1791 
z
M 3481 434 
Q 3481 -459 3084 -895 
Q 2688 -1331 1869 -1331 
Q 1566 -1331 1297 -1286 
Q 1028 -1241 775 -1147 
L 775 -588 
Q 1028 -725 1275 -790 
Q 1522 -856 1778 -856 
Q 2344 -856 2625 -561 
Q 2906 -266 2906 331 
L 2906 616 
Q 2728 306 2450 153 
Q 2172 0 1784 0 
Q 1141 0 747 490 
Q 353 981 353 1791 
Q 353 2603 747 3093 
Q 1141 3584 1784 3584 
Q 2172 3584 2450 3431 
Q 2728 3278 2906 2969 
L 2906 3500 
L 3481 3500 
L 3481 434 
z
" transform="scale(0.015625)"/>
       <path id="DejaVuSans-65" d="M 3597 1894 
L 3597 1613 
L 953 1613 
Q 991 1019 1311 708 
Q 1631 397 2203 397 
Q 2534 397 2845 478 
Q 3156 559 3463 722 
L 3463 178 
Q 3153 47 2828 -22 
Q 2503 -91 2169 -91 
Q 1331 -91 842 396 
Q 353 884 353 1716 
Q 353 2575 817 3079 
Q 1281 3584 2069 3584 
Q 2775 3584 3186 3129 
Q 3597 2675 3597 1894 
z
M 3022 2063 
Q 3016 2534 2758 2815 
Q 2500 3097 2075 3097 
Q 1594 3097 1305 2825 
Q 1016 2553 972 2059 
L 3022 2063 
z
" transform="scale(0.015625)"/>
       <path id="DejaVuSans-56" d="M 1831 0 
L 50 4666 
L 709 4666 
L 2188 738 
L 3669 4666 
L 4325 4666 
L 2547 0 
L 1831 0 
z
" transform="scale(0.015625)"/>
       <path id="DejaVuSans-Oblique-69" d="M 1172 4863 
L 1747 4863 
L 1606 4134 
L 1031 4134 
L 1172 4863 
z
M 909 3500 
L 1484 3500 
L 800 0 
L 225 0 
L 909 3500 
z
" transform="scale(0.015625)"/>
       <path id="DejaVuSans-Oblique-6e" d="M 3566 2113 
L 3156 0 
L 2578 0 
L 2988 2091 
Q 3016 2238 3031 2350 
Q 3047 2463 3047 2528 
Q 3047 2791 2881 2937 
Q 2716 3084 2419 3084 
Q 1956 3084 1622 2776 
Q 1288 2469 1184 1941 
L 800 0 
L 225 0 
L 903 3500 
L 1478 3500 
L 1363 2950 
Q 1603 3253 1940 3418 
Q 2278 3584 2650 3584 
Q 3113 3584 3367 3334 
Q 3622 3084 3622 2631 
Q 3622 2519 3608 2391 
Q 3594 2263 3566 2113 
z
" transform="scale(0.015625)"/>
       <path id="DejaVuSans-28" d="M 1984 4856 
Q 1566 4138 1362 3434 
Q 1159 2731 1159 2009 
Q 1159 1288 1364 580 
Q 1569 -128 1984 -844 
L 1484 -844 
Q 1016 -109 783 600 
Q 550 1309 550 2009 
Q 550 2706 781 3412 
Q 1013 4119 1484 4856 
L 1984 4856 
z
" transform="scale(0.015625)"/>
       <path id="DejaVuSans-29" d="M 513 4856 
L 1013 4856 
Q 1481 4119 1714 3412 
Q 1947 2706 1947 2009 
Q 1947 1309 1714 600 
Q 1481 -109 1013 -844 
L 513 -844 
Q 928 -128 1133 580 
Q 1338 1288 1338 2009 
Q 1338 2731 1133 3434 
Q 928 4138 513 4856 
z
" transform="scale(0.015625)"/>
      </defs>
      <use xlink:href="#DejaVuSans-49" transform="translate(0 0.015625)"/>
      <use xlink:href="#DejaVuSans-6e" transform="translate(29.492188 0.015625)"/>
      <use xlink:href="#DejaVuSans-70" transform="translate(92.871094 0.015625)"/>
      <use xlink:href="#DejaVuSans-75" transform="translate(156.347656 0.015625)"/>
      <use xlink:href="#DejaVuSans-74" transform="translate(219.726562 0.015625)"/>
      <use xlink:href="#DejaVuSans-20" transform="translate(258.935547 0.015625)"/>
      <use xlink:href="#DejaVuSans-76" transform="translate(290.722656 0.015625)"/>
      <use xlink:href="#DejaVuSans-6f" transform="translate(349.902344 0.015625)"/>
      <use xlink:href="#DejaVuSans-6c" transform="translate(411.083984 0.015625)"/>
      <use xlink:href="#DejaVuSans-74" transform="translate(438.867188 0.015625)"/>
      <use xlink:href="#DejaVuSans-61" transform="translate(478.076172 0.015625)"/>
      <use xlink:href="#DejaVuSans-67" transform="translate(539.355469 0.015625)"/>
      <use xlink:href="#DejaVuSans-65" transform="translate(602.832031 0.015625)"/>
      <use xlink:href="#DejaVuSans-20" transform="translate(664.355469 0.015625)"/>
      <use xlink:href="#DejaVuSans-20" transform="translate(696.142578 0.015625)"/>
      <use xlink:href="#DejaVuSans-56" transform="translate(727.929688 0.015625)"/>
      <use xlink:href="#DejaVuSans-Oblique-69" transform="translate(797.294922 -16.390625) scale(0.7)"/>
      <use xlink:href="#DejaVuSans-Oblique-6e" transform="translate(816.743164 -16.390625) scale(0.7)"/>
      <use xlink:href="#DejaVuSans-20" transform="translate(863.842773 0.015625)"/>
      <use xlink:href="#DejaVuSans-20" transform="translate(895.629883 0.015625)"/>
      <use xlink:href="#DejaVuSans-28" transform="translate(927.416992 0.015625)"/>
      <use xlink:href="#DejaVuSans-56" transform="translate(966.430664 0.015625)"/>
      <use xlink:href="#DejaVuSans-29" transform="translate(1034.838867 0.015625)"/>
     </g>
    </g>
   </g>
   <g id="matplotlib.axis_2">
    <g id="ytick_1">
     <g id="line2d_18">
      <path d="M 49.43 272.765455 
L 507.06 272.765455 
" clip-path="url(#p2ba2839ee3)" style="fill: none; stroke: #d9d9d9; stroke-width: 0.7; stroke-linecap: square"/>
     </g>
     <g id="line2d_19">
      <defs>
       <path id="mdfe2dd8c58" d="M 0 0 
L -3.5 0 
" style="stroke: #000000; stroke-width: 0.8"/>
      </defs>
      <g>
       <use xlink:href="#mdfe2dd8c58" x="49.43" y="272.765455" style="stroke: #000000; stroke-width: 0.8"/>
      </g>
     </g>
     <g id="text_10">
      <!-- 0 -->
      <g transform="translate(35.749375 276.754634) scale(0.105 -0.105)">
       <use xlink:href="#DejaVuSans-30"/>
      </g>
     </g>
    </g>
    <g id="ytick_2">
     <g id="line2d_20">
      <path d="M 49.43 239.581039 
L 507.06 239.581039 
" clip-path="url(#p2ba2839ee3)" style="fill: none; stroke: #d9d9d9; stroke-width: 0.7; stroke-linecap: square"/>
     </g>
     <g id="line2d_21">
      <g>
       <use xlink:href="#mdfe2dd8c58" x="49.43" y="239.581039" style="stroke: #000000; stroke-width: 0.8"/>
      </g>
     </g>
     <g id="text_11">
      <!-- 2 -->
      <g transform="translate(35.749375 243.570219) scale(0.105 -0.105)">
       <use xlink:href="#DejaVuSans-32"/>
      </g>
     </g>
    </g>
    <g id="ytick_3">
     <g id="line2d_22">
      <path d="M 49.43 206.396623 
L 507.06 206.396623 
" clip-path="url(#p2ba2839ee3)" style="fill: none; stroke: #d9d9d9; stroke-width: 0.7; stroke-linecap: square"/>
     </g>
     <g id="line2d_23">
      <g>
       <use xlink:href="#mdfe2dd8c58" x="49.43" y="206.396623" style="stroke: #000000; stroke-width: 0.8"/>
      </g>
     </g>
     <g id="text_12">
      <!-- 4 -->
      <g transform="translate(35.749375 210.385803) scale(0.105 -0.105)">
       <use xlink:href="#DejaVuSans-34"/>
      </g>
     </g>
    </g>
    <g id="ytick_4">
     <g id="line2d_24">
      <path d="M 49.43 173.212208 
L 507.06 173.212208 
" clip-path="url(#p2ba2839ee3)" style="fill: none; stroke: #d9d9d9; stroke-width: 0.7; stroke-linecap: square"/>
     </g>
     <g id="line2d_25">
      <g>
       <use xlink:href="#mdfe2dd8c58" x="49.43" y="173.212208" style="stroke: #000000; stroke-width: 0.8"/>
      </g>
     </g>
     <g id="text_13">
      <!-- 6 -->
      <g transform="translate(35.749375 177.201387) scale(0.105 -0.105)">
       <defs>
        <path id="DejaVuSans-36" d="M 2113 2584 
Q 1688 2584 1439 2293 
Q 1191 2003 1191 1497 
Q 1191 994 1439 701 
Q 1688 409 2113 409 
Q 2538 409 2786 701 
Q 3034 994 3034 1497 
Q 3034 2003 2786 2293 
Q 2538 2584 2113 2584 
z
M 3366 4563 
L 3366 3988 
Q 3128 4100 2886 4159 
Q 2644 4219 2406 4219 
Q 1781 4219 1451 3797 
Q 1122 3375 1075 2522 
Q 1259 2794 1537 2939 
Q 1816 3084 2150 3084 
Q 2853 3084 3261 2657 
Q 3669 2231 3669 1497 
Q 3669 778 3244 343 
Q 2819 -91 2113 -91 
Q 1303 -91 875 529 
Q 447 1150 447 2328 
Q 447 3434 972 4092 
Q 1497 4750 2381 4750 
Q 2619 4750 2861 4703 
Q 3103 4656 3366 4563 
z
" transform="scale(0.015625)"/>
       </defs>
       <use xlink:href="#DejaVuSans-36"/>
      </g>
     </g>
    </g>
    <g id="ytick_5">
     <g id="line2d_26">
      <path d="M 49.43 140.027792 
L 507.06 140.027792 
" clip-path="url(#p2ba2839ee3)" style="fill: none; stroke: #d9d9d9; stroke-width: 0.7; stroke-linecap: square"/>
     </g>
     <g id="line2d_27">
      <g>
       <use xlink:href="#mdfe2dd8c58" x="49.43" y="140.027792" style="stroke: #000000; stroke-width: 0.8"/>
      </g>
     </g>
     <g id="text_14">
      <!-- 8 -->
      <g transform="translate(35.749375 144.016972) scale(0.105 -0.105)">
       <use xlink:href="#DejaVuSans-38"/>
      </g>
     </g>
    </g>
    <g id="ytick_6">
     <g id="line2d_28">
      <path d="M 49.43 106.843377 
L 507.06 106.843377 
" clip-path="url(#p2ba2839ee3)" style="fill: none; stroke: #d9d9d9; stroke-width: 0.7; stroke-linecap: square"/>
     </g>
     <g id="line2d_29">
      <g>
       <use xlink:href="#mdfe2dd8c58" x="49.43" y="106.843377" style="stroke: #000000; stroke-width: 0.8"/>
      </g>
     </g>
     <g id="text_15">
      <!-- 10 -->
      <g transform="translate(29.06875 110.832556) scale(0.105 -0.105)">
       <use xlink:href="#DejaVuSans-31"/>
       <use xlink:href="#DejaVuSans-30" transform="translate(63.623047 0)"/>
      </g>
     </g>
    </g>
    <g id="ytick_7">
     <g id="line2d_30">
      <path d="M 49.43 73.658961 
L 507.06 73.658961 
" clip-path="url(#p2ba2839ee3)" style="fill: none; stroke: #d9d9d9; stroke-width: 0.7; stroke-linecap: square"/>
     </g>
     <g id="line2d_31">
      <g>
       <use xlink:href="#mdfe2dd8c58" x="49.43" y="73.658961" style="stroke: #000000; stroke-width: 0.8"/>
      </g>
     </g>
     <g id="text_16">
      <!-- 12 -->
      <g transform="translate(29.06875 77.648141) scale(0.105 -0.105)">
       <use xlink:href="#DejaVuSans-31"/>
       <use xlink:href="#DejaVuSans-32" transform="translate(63.623047 0)"/>
      </g>
     </g>
    </g>
    <g id="ytick_8">
     <g id="line2d_32">
      <path d="M 49.43 40.474545 
L 507.06 40.474545 
" clip-path="url(#p2ba2839ee3)" style="fill: none; stroke: #d9d9d9; stroke-width: 0.7; stroke-linecap: square"/>
     </g>
     <g id="line2d_33">
      <g>
       <use xlink:href="#mdfe2dd8c58" x="49.43" y="40.474545" style="stroke: #000000; stroke-width: 0.8"/>
      </g>
     </g>
     <g id="text_17">
      <!-- 14 -->
      <g transform="translate(29.06875 44.463725) scale(0.105 -0.105)">
       <use xlink:href="#DejaVuSans-31"/>
       <use xlink:href="#DejaVuSans-34" transform="translate(63.623047 0)"/>
      </g>
     </g>
    </g>
    <g id="text_18">
     <!-- Output voltage  V$_{out}$  (V) -->
     <g transform="translate(22.86375 220.355) rotate(-90) scale(0.105 -0.105)">
      <defs>
       <path id="DejaVuSans-4f" d="M 2522 4238 
Q 1834 4238 1429 3725 
Q 1025 3213 1025 2328 
Q 1025 1447 1429 934 
Q 1834 422 2522 422 
Q 3209 422 3611 934 
Q 4013 1447 4013 2328 
Q 4013 3213 3611 3725 
Q 3209 4238 2522 4238 
z
M 2522 4750 
Q 3503 4750 4090 4092 
Q 4678 3434 4678 2328 
Q 4678 1225 4090 567 
Q 3503 -91 2522 -91 
Q 1538 -91 948 565 
Q 359 1222 359 2328 
Q 359 3434 948 4092 
Q 1538 4750 2522 4750 
z
" transform="scale(0.015625)"/>
       <path id="DejaVuSans-Oblique-6f" d="M 1625 -91 
Q 1009 -91 651 289 
Q 294 669 294 1325 
Q 294 1706 417 2101 
Q 541 2497 738 2766 
Q 1047 3184 1428 3384 
Q 1809 3584 2291 3584 
Q 2888 3584 3255 3212 
Q 3622 2841 3622 2241 
Q 3622 1825 3500 1412 
Q 3378 1000 3181 728 
Q 2875 309 2494 109 
Q 2113 -91 1625 -91 
z
M 891 1344 
Q 891 869 1089 633 
Q 1288 397 1691 397 
Q 2269 397 2648 901 
Q 3028 1406 3028 2181 
Q 3028 2634 2825 2865 
Q 2622 3097 2228 3097 
Q 1903 3097 1650 2945 
Q 1397 2794 1197 2484 
Q 1050 2253 970 1956 
Q 891 1659 891 1344 
z
" transform="scale(0.015625)"/>
       <path id="DejaVuSans-Oblique-75" d="M 428 1388 
L 838 3500 
L 1416 3500 
L 1006 1409 
Q 975 1256 961 1147 
Q 947 1038 947 966 
Q 947 700 1109 554 
Q 1272 409 1569 409 
Q 2031 409 2368 721 
Q 2706 1034 2809 1563 
L 3194 3500 
L 3769 3500 
L 3091 0 
L 2516 0 
L 2631 550 
Q 2388 244 2052 76 
Q 1716 -91 1338 -91 
Q 878 -91 622 161 
Q 366 413 366 863 
Q 366 956 381 1097 
Q 397 1238 428 1388 
z
" transform="scale(0.015625)"/>
       <path id="DejaVuSans-Oblique-74" d="M 2706 3500 
L 2619 3053 
L 1472 3053 
L 1100 1153 
Q 1081 1047 1072 975 
Q 1063 903 1063 863 
Q 1063 663 1183 572 
Q 1303 481 1569 481 
L 2150 481 
L 2053 0 
L 1503 0 
Q 991 0 739 200 
Q 488 400 488 806 
Q 488 878 497 964 
Q 506 1050 525 1153 
L 897 3053 
L 409 3053 
L 500 3500 
L 978 3500 
L 1172 4494 
L 1747 4494 
L 1556 3500 
L 2706 3500 
z
" transform="scale(0.015625)"/>
      </defs>
      <use xlink:href="#DejaVuSans-4f" transform="translate(0 0.015625)"/>
      <use xlink:href="#DejaVuSans-75" transform="translate(78.710938 0.015625)"/>
      <use xlink:href="#DejaVuSans-74" transform="translate(142.089844 0.015625)"/>
      <use xlink:href="#DejaVuSans-70" transform="translate(181.298828 0.015625)"/>
      <use xlink:href="#DejaVuSans-75" transform="translate(244.775391 0.015625)"/>
      <use xlink:href="#DejaVuSans-74" transform="translate(308.154297 0.015625)"/>
      <use xlink:href="#DejaVuSans-20" transform="translate(347.363281 0.015625)"/>
      <use xlink:href="#DejaVuSans-76" transform="translate(379.150391 0.015625)"/>
      <use xlink:href="#DejaVuSans-6f" transform="translate(438.330078 0.015625)"/>
      <use xlink:href="#DejaVuSans-6c" transform="translate(499.511719 0.015625)"/>
      <use xlink:href="#DejaVuSans-74" transform="translate(527.294922 0.015625)"/>
      <use xlink:href="#DejaVuSans-61" transform="translate(566.503906 0.015625)"/>
      <use xlink:href="#DejaVuSans-67" transform="translate(627.783203 0.015625)"/>
      <use xlink:href="#DejaVuSans-65" transform="translate(691.259766 0.015625)"/>
      <use xlink:href="#DejaVuSans-20" transform="translate(752.783203 0.015625)"/>
      <use xlink:href="#DejaVuSans-20" transform="translate(784.570312 0.015625)"/>
      <use xlink:href="#DejaVuSans-56" transform="translate(816.357422 0.015625)"/>
      <use xlink:href="#DejaVuSans-Oblique-6f" transform="translate(885.722656 -16.390625) scale(0.7)"/>
      <use xlink:href="#DejaVuSans-Oblique-75" transform="translate(928.549805 -16.390625) scale(0.7)"/>
      <use xlink:href="#DejaVuSans-Oblique-74" transform="translate(972.915039 -16.390625) scale(0.7)"/>
      <use xlink:href="#DejaVuSans-20" transform="translate(1003.095703 0.015625)"/>
      <use xlink:href="#DejaVuSans-20" transform="translate(1034.882812 0.015625)"/>
      <use xlink:href="#DejaVuSans-28" transform="translate(1066.669922 0.015625)"/>
      <use xlink:href="#DejaVuSans-56" transform="translate(1105.683594 0.015625)"/>
      <use xlink:href="#DejaVuSans-29" transform="translate(1174.091797 0.015625)"/>
     </g>
    </g>
   </g>
   <g id="patch_3">
    <path d="M 49.43 284.38 
L 49.43 28.86 
" style="fill: none; stroke: #444444; stroke-width: 0.9; stroke-linejoin: miter; stroke-linecap: square"/>
   </g>
   <g id="patch_4">
    <path d="M 49.43 284.38 
L 507.06 284.38 
" style="fill: none; stroke: #444444; stroke-width: 0.9; stroke-linejoin: miter; stroke-linecap: square"/>
   </g>
   <g id="line2d_34">
    <path d="M 70.231364 164.916104 
L 97.966515 156.62 
L 125.701667 148.323896 
L 153.436818 140.027792 
L 203.360091 125.094805 
L 208.907121 123.435584 
L 214.454152 122.937818 
L 236.642273 122.937818 
L 264.377424 122.771896 
L 319.847727 122.771896 
L 375.31803 122.605974 
L 430.788333 122.440052 
L 486.258636 122.771896 
" clip-path="url(#p2ba2839ee3)" style="fill: none; stroke: #9e9e9e; stroke-width: 1.4; stroke-linecap: square"/>
    <defs>
     <path id="m555fac6c4d" d="M 0 1.7 
C 0.450845 1.7 0.883286 1.520877 1.202082 1.202082 
C 1.520877 0.883286 1.7 0.450845 1.7 0 
C 1.7 -0.450845 1.520877 -0.883286 1.202082 -1.202082 
C 0.883286 -1.520877 0.450845 -1.7 0 -1.7 
C -0.450845 -1.7 -0.883286 -1.520877 -1.202082 -1.202082 
C -1.520877 -0.883286 -1.7 -0.450845 -1.7 0 
C -1.7 0.450845 -1.520877 0.883286 -1.202082 1.202082 
C -0.883286 1.520877 -0.450845 1.7 0 1.7 
z
" style="stroke: #9e9e9e"/>
    </defs>
    <g clip-path="url(#p2ba2839ee3)">
     <use xlink:href="#m555fac6c4d" x="70.231364" y="164.916104" style="fill: #9e9e9e; stroke: #9e9e9e"/>
     <use xlink:href="#m555fac6c4d" x="97.966515" y="156.62" style="fill: #9e9e9e; stroke: #9e9e9e"/>
     <use xlink:href="#m555fac6c4d" x="125.701667" y="148.323896" style="fill: #9e9e9e; stroke: #9e9e9e"/>
     <use xlink:href="#m555fac6c4d" x="153.436818" y="140.027792" style="fill: #9e9e9e; stroke: #9e9e9e"/>
     <use xlink:href="#m555fac6c4d" x="203.360091" y="125.094805" style="fill: #9e9e9e; stroke: #9e9e9e"/>
     <use xlink:href="#m555fac6c4d" x="208.907121" y="123.435584" style="fill: #9e9e9e; stroke: #9e9e9e"/>
     <use xlink:href="#m555fac6c4d" x="214.454152" y="122.937818" style="fill: #9e9e9e; stroke: #9e9e9e"/>
     <use xlink:href="#m555fac6c4d" x="236.642273" y="122.937818" style="fill: #9e9e9e; stroke: #9e9e9e"/>
     <use xlink:href="#m555fac6c4d" x="264.377424" y="122.771896" style="fill: #9e9e9e; stroke: #9e9e9e"/>
     <use xlink:href="#m555fac6c4d" x="319.847727" y="122.771896" style="fill: #9e9e9e; stroke: #9e9e9e"/>
     <use xlink:href="#m555fac6c4d" x="375.31803" y="122.605974" style="fill: #9e9e9e; stroke: #9e9e9e"/>
     <use xlink:href="#m555fac6c4d" x="430.788333" y="122.440052" style="fill: #9e9e9e; stroke: #9e9e9e"/>
     <use xlink:href="#m555fac6c4d" x="486.258636" y="122.771896" style="fill: #9e9e9e; stroke: #9e9e9e"/>
    </g>
   </g>
   <g id="line2d_35">
    <path d="M 70.231364 165.082026 
L 97.966515 156.62 
L 125.701667 148.323896 
L 153.436818 140.027792 
L 203.360091 125.094805 
L 208.907121 123.435584 
L 214.454152 123.435584 
L 236.642273 123.435584 
L 264.377424 123.435584 
L 319.847727 123.269662 
L 375.31803 123.269662 
L 430.788333 123.10374 
L 486.258636 123.435584 
" clip-path="url(#p2ba2839ee3)" style="fill: none; stroke: #1f77b4; stroke-width: 1.4; stroke-linecap: square"/>
    <defs>
     <path id="m1f9a233eda" d="M 0 1.7 
C 0.450845 1.7 0.883286 1.520877 1.202082 1.202082 
C 1.520877 0.883286 1.7 0.450845 1.7 0 
C 1.7 -0.450845 1.520877 -0.883286 1.202082 -1.202082 
C 0.883286 -1.520877 0.450845 -1.7 0 -1.7 
C -0.450845 -1.7 -0.883286 -1.520877 -1.202082 -1.202082 
C -1.520877 -0.883286 -1.7 -0.450845 -1.7 0 
C -1.7 0.450845 -1.520877 0.883286 -1.202082 1.202082 
C -0.883286 1.520877 -0.450845 1.7 0 1.7 
z
" style="stroke: #1f77b4"/>
    </defs>
    <g clip-path="url(#p2ba2839ee3)">
     <use xlink:href="#m1f9a233eda" x="70.231364" y="165.082026" style="fill: #1f77b4; stroke: #1f77b4"/>
     <use xlink:href="#m1f9a233eda" x="97.966515" y="156.62" style="fill: #1f77b4; stroke: #1f77b4"/>
     <use xlink:href="#m1f9a233eda" x="125.701667" y="148.323896" style="fill: #1f77b4; stroke: #1f77b4"/>
     <use xlink:href="#m1f9a233eda" x="153.436818" y="140.027792" style="fill: #1f77b4; stroke: #1f77b4"/>
     <use xlink:href="#m1f9a233eda" x="203.360091" y="125.094805" style="fill: #1f77b4; stroke: #1f77b4"/>
     <use xlink:href="#m1f9a233eda" x="208.907121" y="123.435584" style="fill: #1f77b4; stroke: #1f77b4"/>
     <use xlink:href="#m1f9a233eda" x="214.454152" y="123.435584" style="fill: #1f77b4; stroke: #1f77b4"/>
     <use xlink:href="#m1f9a233eda" x="236.642273" y="123.435584" style="fill: #1f77b4; stroke: #1f77b4"/>
     <use xlink:href="#m1f9a233eda" x="264.377424" y="123.435584" style="fill: #1f77b4; stroke: #1f77b4"/>
     <use xlink:href="#m1f9a233eda" x="319.847727" y="123.269662" style="fill: #1f77b4; stroke: #1f77b4"/>
     <use xlink:href="#m1f9a233eda" x="375.31803" y="123.269662" style="fill: #1f77b4; stroke: #1f77b4"/>
     <use xlink:href="#m1f9a233eda" x="430.788333" y="123.10374" style="fill: #1f77b4; stroke: #1f77b4"/>
     <use xlink:href="#m1f9a233eda" x="486.258636" y="123.435584" style="fill: #1f77b4; stroke: #1f77b4"/>
    </g>
   </g>
   <g id="line2d_36">
    <path d="M 70.231364 165.911636 
L 97.966515 156.951844 
L 125.701667 148.489818 
L 153.436818 140.193714 
L 203.360091 125.260727 
L 208.907121 123.601506 
L 214.454152 123.601506 
L 236.642273 123.601506 
L 264.377424 123.601506 
L 319.847727 123.435584 
L 375.31803 123.435584 
L 430.788333 123.269662 
L 486.258636 123.435584 
" clip-path="url(#p2ba2839ee3)" style="fill: none; stroke: #2ca02c; stroke-width: 1.4; stroke-linecap: square"/>
    <defs>
     <path id="mb358919d50" d="M 0 1.7 
C 0.450845 1.7 0.883286 1.520877 1.202082 1.202082 
C 1.520877 0.883286 1.7 0.450845 1.7 0 
C 1.7 -0.450845 1.520877 -0.883286 1.202082 -1.202082 
C 0.883286 -1.520877 0.450845 -1.7 0 -1.7 
C -0.450845 -1.7 -0.883286 -1.520877 -1.202082 -1.202082 
C -1.520877 -0.883286 -1.7 -0.450845 -1.7 0 
C -1.7 0.450845 -1.520877 0.883286 -1.202082 1.202082 
C -0.883286 1.520877 -0.450845 1.7 0 1.7 
z
" style="stroke: #2ca02c"/>
    </defs>
    <g clip-path="url(#p2ba2839ee3)">
     <use xlink:href="#mb358919d50" x="70.231364" y="165.911636" style="fill: #2ca02c; stroke: #2ca02c"/>
     <use xlink:href="#mb358919d50" x="97.966515" y="156.951844" style="fill: #2ca02c; stroke: #2ca02c"/>
     <use xlink:href="#mb358919d50" x="125.701667" y="148.489818" style="fill: #2ca02c; stroke: #2ca02c"/>
     <use xlink:href="#mb358919d50" x="153.436818" y="140.193714" style="fill: #2ca02c; stroke: #2ca02c"/>
     <use xlink:href="#mb358919d50" x="203.360091" y="125.260727" style="fill: #2ca02c; stroke: #2ca02c"/>
     <use xlink:href="#mb358919d50" x="208.907121" y="123.601506" style="fill: #2ca02c; stroke: #2ca02c"/>
     <use xlink:href="#mb358919d50" x="214.454152" y="123.601506" style="fill: #2ca02c; stroke: #2ca02c"/>
     <use xlink:href="#mb358919d50" x="236.642273" y="123.601506" style="fill: #2ca02c; stroke: #2ca02c"/>
     <use xlink:href="#mb358919d50" x="264.377424" y="123.601506" style="fill: #2ca02c; stroke: #2ca02c"/>
     <use xlink:href="#mb358919d50" x="319.847727" y="123.435584" style="fill: #2ca02c; stroke: #2ca02c"/>
     <use xlink:href="#mb358919d50" x="375.31803" y="123.435584" style="fill: #2ca02c; stroke: #2ca02c"/>
     <use xlink:href="#mb358919d50" x="430.788333" y="123.269662" style="fill: #2ca02c; stroke: #2ca02c"/>
     <use xlink:href="#mb358919d50" x="486.258636" y="123.435584" style="fill: #2ca02c; stroke: #2ca02c"/>
    </g>
   </g>
   <g id="line2d_37">
    <path d="M 70.231364 231.284935 
L 97.966515 157.283688 
L 125.701667 148.65574 
L 153.436818 140.359636 
L 203.360091 125.426649 
L 208.907121 123.767429 
L 214.454152 123.767429 
L 236.642273 123.767429 
L 264.377424 123.601506 
L 319.847727 123.435584 
L 375.31803 123.435584 
L 430.788333 123.435584 
L 486.258636 123.435584 
" clip-path="url(#p2ba2839ee3)" style="fill: none; stroke: #9467bd; stroke-width: 1.4; stroke-linecap: square"/>
    <defs>
     <path id="m6ba9868ff5" d="M 0 1.7 
C 0.450845 1.7 0.883286 1.520877 1.202082 1.202082 
C 1.520877 0.883286 1.7 0.450845 1.7 0 
C 1.7 -0.450845 1.520877 -0.883286 1.202082 -1.202082 
C 0.883286 -1.520877 0.450845 -1.7 0 -1.7 
C -0.450845 -1.7 -0.883286 -1.520877 -1.202082 -1.202082 
C -1.520877 -0.883286 -1.7 -0.450845 -1.7 0 
C -1.7 0.450845 -1.520877 0.883286 -1.202082 1.202082 
C -0.883286 1.520877 -0.450845 1.7 0 1.7 
z
" style="stroke: #9467bd"/>
    </defs>
    <g clip-path="url(#p2ba2839ee3)">
     <use xlink:href="#m6ba9868ff5" x="70.231364" y="231.284935" style="fill: #9467bd; stroke: #9467bd"/>
     <use xlink:href="#m6ba9868ff5" x="97.966515" y="157.283688" style="fill: #9467bd; stroke: #9467bd"/>
     <use xlink:href="#m6ba9868ff5" x="125.701667" y="148.65574" style="fill: #9467bd; stroke: #9467bd"/>
     <use xlink:href="#m6ba9868ff5" x="153.436818" y="140.359636" style="fill: #9467bd; stroke: #9467bd"/>
     <use xlink:href="#m6ba9868ff5" x="203.360091" y="125.426649" style="fill: #9467bd; stroke: #9467bd"/>
     <use xlink:href="#m6ba9868ff5" x="208.907121" y="123.767429" style="fill: #9467bd; stroke: #9467bd"/>
     <use xlink:href="#m6ba9868ff5" x="214.454152" y="123.767429" style="fill: #9467bd; stroke: #9467bd"/>
     <use xlink:href="#m6ba9868ff5" x="236.642273" y="123.767429" style="fill: #9467bd; stroke: #9467bd"/>
     <use xlink:href="#m6ba9868ff5" x="264.377424" y="123.601506" style="fill: #9467bd; stroke: #9467bd"/>
     <use xlink:href="#m6ba9868ff5" x="319.847727" y="123.435584" style="fill: #9467bd; stroke: #9467bd"/>
     <use xlink:href="#m6ba9868ff5" x="375.31803" y="123.435584" style="fill: #9467bd; stroke: #9467bd"/>
     <use xlink:href="#m6ba9868ff5" x="430.788333" y="123.435584" style="fill: #9467bd; stroke: #9467bd"/>
     <use xlink:href="#m6ba9868ff5" x="486.258636" y="123.435584" style="fill: #9467bd; stroke: #9467bd"/>
    </g>
   </g>
   <g id="line2d_38">
    <path d="M 70.231364 272.765455 
L 97.966515 157.44961 
L 125.701667 148.987584 
L 153.436818 140.691481 
L 203.360091 125.758494 
L 208.907121 123.933351 
L 214.454152 123.933351 
L 236.642273 123.767429 
L 264.377424 123.767429 
L 319.847727 123.601506 
L 375.31803 123.435584 
L 430.788333 123.435584 
L 486.258636 123.435584 
" clip-path="url(#p2ba2839ee3)" style="fill: none; stroke: #ff7f0e; stroke-width: 1.4; stroke-linecap: square"/>
    <defs>
     <path id="m4f102a2291" d="M 0 1.7 
C 0.450845 1.7 0.883286 1.520877 1.202082 1.202082 
C 1.520877 0.883286 1.7 0.450845 1.7 0 
C 1.7 -0.450845 1.520877 -0.883286 1.202082 -1.202082 
C 0.883286 -1.520877 0.450845 -1.7 0 -1.7 
C -0.450845 -1.7 -0.883286 -1.520877 -1.202082 -1.202082 
C -1.520877 -0.883286 -1.7 -0.450845 -1.7 0 
C -1.7 0.450845 -1.520877 0.883286 -1.202082 1.202082 
C -0.883286 1.520877 -0.450845 1.7 0 1.7 
z
" style="stroke: #ff7f0e"/>
    </defs>
    <g clip-path="url(#p2ba2839ee3)">
     <use xlink:href="#m4f102a2291" x="70.231364" y="272.765455" style="fill: #ff7f0e; stroke: #ff7f0e"/>
     <use xlink:href="#m4f102a2291" x="97.966515" y="157.44961" style="fill: #ff7f0e; stroke: #ff7f0e"/>
     <use xlink:href="#m4f102a2291" x="125.701667" y="148.987584" style="fill: #ff7f0e; stroke: #ff7f0e"/>
     <use xlink:href="#m4f102a2291" x="153.436818" y="140.691481" style="fill: #ff7f0e; stroke: #ff7f0e"/>
     <use xlink:href="#m4f102a2291" x="203.360091" y="125.758494" style="fill: #ff7f0e; stroke: #ff7f0e"/>
     <use xlink:href="#m4f102a2291" x="208.907121" y="123.933351" style="fill: #ff7f0e; stroke: #ff7f0e"/>
     <use xlink:href="#m4f102a2291" x="214.454152" y="123.933351" style="fill: #ff7f0e; stroke: #ff7f0e"/>
     <use xlink:href="#m4f102a2291" x="236.642273" y="123.767429" style="fill: #ff7f0e; stroke: #ff7f0e"/>
     <use xlink:href="#m4f102a2291" x="264.377424" y="123.767429" style="fill: #ff7f0e; stroke: #ff7f0e"/>
     <use xlink:href="#m4f102a2291" x="319.847727" y="123.601506" style="fill: #ff7f0e; stroke: #ff7f0e"/>
     <use xlink:href="#m4f102a2291" x="375.31803" y="123.435584" style="fill: #ff7f0e; stroke: #ff7f0e"/>
     <use xlink:href="#m4f102a2291" x="430.788333" y="123.435584" style="fill: #ff7f0e; stroke: #ff7f0e"/>
     <use xlink:href="#m4f102a2291" x="486.258636" y="123.435584" style="fill: #ff7f0e; stroke: #ff7f0e"/>
    </g>
   </g>
   <g id="line2d_39">
    <path d="M 70.231364 272.765455 
L 97.966515 157.615532 
L 125.701667 149.319429 
L 153.436818 140.857403 
L 203.360091 126.090338 
L 208.907121 124.265195 
L 214.454152 123.933351 
L 236.642273 123.767429 
L 264.377424 123.767429 
L 319.847727 123.601506 
L 375.31803 123.435584 
L 430.788333 123.435584 
L 486.258636 123.435584 
" clip-path="url(#p2ba2839ee3)" style="fill: none; stroke: #d62728; stroke-width: 1.4; stroke-linecap: square"/>
    <defs>
     <path id="m51a3110df8" d="M 0 1.7 
C 0.450845 1.7 0.883286 1.520877 1.202082 1.202082 
C 1.520877 0.883286 1.7 0.450845 1.7 0 
C 1.7 -0.450845 1.520877 -0.883286 1.202082 -1.202082 
C 0.883286 -1.520877 0.450845 -1.7 0 -1.7 
C -0.450845 -1.7 -0.883286 -1.520877 -1.202082 -1.202082 
C -1.520877 -0.883286 -1.7 -0.450845 -1.7 0 
C -1.7 0.450845 -1.520877 0.883286 -1.202082 1.202082 
C -0.883286 1.520877 -0.450845 1.7 0 1.7 
z
" style="stroke: #d62728"/>
    </defs>
    <g clip-path="url(#p2ba2839ee3)">
     <use xlink:href="#m51a3110df8" x="70.231364" y="272.765455" style="fill: #d62728; stroke: #d62728"/>
     <use xlink:href="#m51a3110df8" x="97.966515" y="157.615532" style="fill: #d62728; stroke: #d62728"/>
     <use xlink:href="#m51a3110df8" x="125.701667" y="149.319429" style="fill: #d62728; stroke: #d62728"/>
     <use xlink:href="#m51a3110df8" x="153.436818" y="140.857403" style="fill: #d62728; stroke: #d62728"/>
     <use xlink:href="#m51a3110df8" x="203.360091" y="126.090338" style="fill: #d62728; stroke: #d62728"/>
     <use xlink:href="#m51a3110df8" x="208.907121" y="124.265195" style="fill: #d62728; stroke: #d62728"/>
     <use xlink:href="#m51a3110df8" x="214.454152" y="123.933351" style="fill: #d62728; stroke: #d62728"/>
     <use xlink:href="#m51a3110df8" x="236.642273" y="123.767429" style="fill: #d62728; stroke: #d62728"/>
     <use xlink:href="#m51a3110df8" x="264.377424" y="123.767429" style="fill: #d62728; stroke: #d62728"/>
     <use xlink:href="#m51a3110df8" x="319.847727" y="123.601506" style="fill: #d62728; stroke: #d62728"/>
     <use xlink:href="#m51a3110df8" x="375.31803" y="123.435584" style="fill: #d62728; stroke: #d62728"/>
     <use xlink:href="#m51a3110df8" x="430.788333" y="123.435584" style="fill: #d62728; stroke: #d62728"/>
     <use xlink:href="#m51a3110df8" x="486.258636" y="123.435584" style="fill: #d62728; stroke: #d62728"/>
    </g>
   </g>
   <g id="line2d_40">
    <path d="M 97.966515 158.942909 
L 125.701667 150.314961 
L 153.436818 141.355169 
L 203.360091 127.08587 
L 208.907121 125.426649 
L 214.454152 124.597039 
L 236.642273 124.265195 
L 264.377424 124.099273 
L 319.847727 123.933351 
L 375.31803 123.767429 
L 430.788333 123.767429 
" clip-path="url(#p2ba2839ee3)" style="fill: none; stroke: #8c564b; stroke-width: 1.4; stroke-linecap: square"/>
    <defs>
     <path id="mac0f3d634c" d="M 0 1.7 
C 0.450845 1.7 0.883286 1.520877 1.202082 1.202082 
C 1.520877 0.883286 1.7 0.450845 1.7 0 
C 1.7 -0.450845 1.520877 -0.883286 1.202082 -1.202082 
C 0.883286 -1.520877 0.450845 -1.7 0 -1.7 
C -0.450845 -1.7 -0.883286 -1.520877 -1.202082 -1.202082 
C -1.520877 -0.883286 -1.7 -0.450845 -1.7 0 
C -1.7 0.450845 -1.520877 0.883286 -1.202082 1.202082 
C -0.883286 1.520877 -0.450845 1.7 0 1.7 
z
" style="stroke: #8c564b"/>
    </defs>
    <g clip-path="url(#p2ba2839ee3)">
     <use xlink:href="#mac0f3d634c" x="97.966515" y="158.942909" style="fill: #8c564b; stroke: #8c564b"/>
     <use xlink:href="#mac0f3d634c" x="125.701667" y="150.314961" style="fill: #8c564b; stroke: #8c564b"/>
     <use xlink:href="#mac0f3d634c" x="153.436818" y="141.355169" style="fill: #8c564b; stroke: #8c564b"/>
     <use xlink:href="#mac0f3d634c" x="203.360091" y="127.08587" style="fill: #8c564b; stroke: #8c564b"/>
     <use xlink:href="#mac0f3d634c" x="208.907121" y="125.426649" style="fill: #8c564b; stroke: #8c564b"/>
     <use xlink:href="#mac0f3d634c" x="214.454152" y="124.597039" style="fill: #8c564b; stroke: #8c564b"/>
     <use xlink:href="#mac0f3d634c" x="236.642273" y="124.265195" style="fill: #8c564b; stroke: #8c564b"/>
     <use xlink:href="#mac0f3d634c" x="264.377424" y="124.099273" style="fill: #8c564b; stroke: #8c564b"/>
     <use xlink:href="#mac0f3d634c" x="319.847727" y="123.933351" style="fill: #8c564b; stroke: #8c564b"/>
     <use xlink:href="#mac0f3d634c" x="375.31803" y="123.767429" style="fill: #8c564b; stroke: #8c564b"/>
     <use xlink:href="#mac0f3d634c" x="430.788333" y="123.767429" style="fill: #8c564b; stroke: #8c564b"/>
    </g>
   </g>
   <g id="text_19">
    <!-- 9 V setting — V$_{out}$ vs V$_{in}$, all load levels -->
    <g transform="translate(147.985 22.86) scale(0.12 -0.12)">
     <defs>
      <path id="DejaVuSans-Bold-39" d="M 641 103 
L 641 966 
Q 928 831 1190 764 
Q 1453 697 1709 697 
Q 2247 697 2547 995 
Q 2847 1294 2900 1881 
Q 2688 1725 2447 1647 
Q 2206 1569 1925 1569 
Q 1209 1569 770 1986 
Q 331 2403 331 3084 
Q 331 3838 820 4291 
Q 1309 4744 2131 4744 
Q 3044 4744 3544 4128 
Q 4044 3513 4044 2388 
Q 4044 1231 3459 570 
Q 2875 -91 1856 -91 
Q 1528 -91 1228 -42 
Q 928 6 641 103 
z
M 2125 2350 
Q 2441 2350 2600 2554 
Q 2759 2759 2759 3169 
Q 2759 3575 2600 3781 
Q 2441 3988 2125 3988 
Q 1809 3988 1650 3781 
Q 1491 3575 1491 3169 
Q 1491 2759 1650 2554 
Q 1809 2350 2125 2350 
z
" transform="scale(0.015625)"/>
      <path id="DejaVuSans-Bold-20" transform="scale(0.015625)"/>
      <path id="DejaVuSans-Bold-56" d="M 31 4666 
L 1241 4666 
L 2478 1222 
L 3713 4666 
L 4922 4666 
L 3194 0 
L 1759 0 
L 31 4666 
z
" transform="scale(0.015625)"/>
      <path id="DejaVuSans-Bold-73" d="M 3272 3391 
L 3272 2541 
Q 2913 2691 2578 2766 
Q 2244 2841 1947 2841 
Q 1628 2841 1473 2761 
Q 1319 2681 1319 2516 
Q 1319 2381 1436 2309 
Q 1553 2238 1856 2203 
L 2053 2175 
Q 2913 2066 3209 1816 
Q 3506 1566 3506 1031 
Q 3506 472 3093 190 
Q 2681 -91 1863 -91 
Q 1516 -91 1145 -36 
Q 775 19 384 128 
L 384 978 
Q 719 816 1070 734 
Q 1422 653 1784 653 
Q 2113 653 2278 743 
Q 2444 834 2444 1013 
Q 2444 1163 2330 1236 
Q 2216 1309 1875 1350 
L 1678 1375 
Q 931 1469 631 1722 
Q 331 1975 331 2491 
Q 331 3047 712 3315 
Q 1094 3584 1881 3584 
Q 2191 3584 2531 3537 
Q 2872 3491 3272 3391 
z
" transform="scale(0.015625)"/>
      <path id="DejaVuSans-Bold-65" d="M 4031 1759 
L 4031 1441 
L 1416 1441 
Q 1456 1047 1700 850 
Q 1944 653 2381 653 
Q 2734 653 3104 758 
Q 3475 863 3866 1075 
L 3866 213 
Q 3469 63 3072 -14 
Q 2675 -91 2278 -91 
Q 1328 -91 801 392 
Q 275 875 275 1747 
Q 275 2603 792 3093 
Q 1309 3584 2216 3584 
Q 3041 3584 3536 3087 
Q 4031 2591 4031 1759 
z
M 2881 2131 
Q 2881 2450 2695 2645 
Q 2509 2841 2209 2841 
Q 1884 2841 1681 2658 
Q 1478 2475 1428 2131 
L 2881 2131 
z
" transform="scale(0.015625)"/>
      <path id="DejaVuSans-Bold-74" d="M 1759 4494 
L 1759 3500 
L 2913 3500 
L 2913 2700 
L 1759 2700 
L 1759 1216 
Q 1759 972 1856 886 
Q 1953 800 2241 800 
L 2816 800 
L 2816 0 
L 1856 0 
Q 1194 0 917 276 
Q 641 553 641 1216 
L 641 2700 
L 84 2700 
L 84 3500 
L 641 3500 
L 641 4494 
L 1759 4494 
z
" transform="scale(0.015625)"/>
      <path id="DejaVuSans-Bold-69" d="M 538 3500 
L 1656 3500 
L 1656 0 
L 538 0 
L 538 3500 
z
M 538 4863 
L 1656 4863 
L 1656 3950 
L 538 3950 
L 538 4863 
z
" transform="scale(0.015625)"/>
      <path id="DejaVuSans-Bold-6e" d="M 4056 2131 
L 4056 0 
L 2931 0 
L 2931 347 
L 2931 1631 
Q 2931 2084 2911 2256 
Q 2891 2428 2841 2509 
Q 2775 2619 2662 2680 
Q 2550 2741 2406 2741 
Q 2056 2741 1856 2470 
Q 1656 2200 1656 1722 
L 1656 0 
L 538 0 
L 538 3500 
L 1656 3500 
L 1656 2988 
Q 1909 3294 2193 3439 
Q 2478 3584 2822 3584 
Q 3428 3584 3742 3212 
Q 4056 2841 4056 2131 
z
" transform="scale(0.015625)"/>
      <path id="DejaVuSans-Bold-67" d="M 2919 594 
Q 2688 288 2409 144 
Q 2131 0 1766 0 
Q 1125 0 706 504 
Q 288 1009 288 1791 
Q 288 2575 706 3076 
Q 1125 3578 1766 3578 
Q 2131 3578 2409 3434 
Q 2688 3291 2919 2981 
L 2919 3500 
L 4044 3500 
L 4044 353 
Q 4044 -491 3511 -936 
Q 2978 -1381 1966 -1381 
Q 1638 -1381 1331 -1331 
Q 1025 -1281 716 -1178 
L 716 -306 
Q 1009 -475 1290 -558 
Q 1572 -641 1856 -641 
Q 2406 -641 2662 -400 
Q 2919 -159 2919 353 
L 2919 594 
z
M 2181 2772 
Q 1834 2772 1640 2515 
Q 1447 2259 1447 1791 
Q 1447 1309 1634 1061 
Q 1822 813 2181 813 
Q 2531 813 2725 1069 
Q 2919 1325 2919 1791 
Q 2919 2259 2725 2515 
Q 2531 2772 2181 2772 
z
" transform="scale(0.015625)"/>
      <path id="DejaVuSansDisplay-2014" d="M 313 1978 
L 6088 1978 
L 6088 1528 
L 313 1528 
L 313 1978 
z
" transform="scale(0.015625)"/>
      <path id="DejaVuSans-Bold-76" d="M 97 3500 
L 1216 3500 
L 2088 1081 
L 2956 3500 
L 4078 3500 
L 2700 0 
L 1472 0 
L 97 3500 
z
" transform="scale(0.015625)"/>
      <path id="DejaVuSans-Bold-2c" d="M 653 1209 
L 1778 1209 
L 1778 256 
L 1006 -909 
L 341 -909 
L 653 256 
L 653 1209 
z
" transform="scale(0.015625)"/>
      <path id="DejaVuSans-Bold-61" d="M 2106 1575 
Q 1756 1575 1579 1456 
Q 1403 1338 1403 1106 
Q 1403 894 1545 773 
Q 1688 653 1941 653 
Q 2256 653 2472 879 
Q 2688 1106 2688 1447 
L 2688 1575 
L 2106 1575 
z
M 3816 1997 
L 3816 0 
L 2688 0 
L 2688 519 
Q 2463 200 2181 54 
Q 1900 -91 1497 -91 
Q 953 -91 614 226 
Q 275 544 275 1050 
Q 275 1666 698 1953 
Q 1122 2241 2028 2241 
L 2688 2241 
L 2688 2328 
Q 2688 2594 2478 2717 
Q 2269 2841 1825 2841 
Q 1466 2841 1156 2769 
Q 847 2697 581 2553 
L 581 3406 
Q 941 3494 1303 3539 
Q 1666 3584 2028 3584 
Q 2975 3584 3395 3211 
Q 3816 2838 3816 1997 
z
" transform="scale(0.015625)"/>
      <path id="DejaVuSans-Bold-6c" d="M 538 4863 
L 1656 4863 
L 1656 0 
L 538 0 
L 538 4863 
z
" transform="scale(0.015625)"/>
      <path id="DejaVuSans-Bold-6f" d="M 2203 2784 
Q 1831 2784 1636 2517 
Q 1441 2250 1441 1747 
Q 1441 1244 1636 976 
Q 1831 709 2203 709 
Q 2569 709 2762 976 
Q 2956 1244 2956 1747 
Q 2956 2250 2762 2517 
Q 2569 2784 2203 2784 
z
M 2203 3584 
Q 3106 3584 3614 3096 
Q 4122 2609 4122 1747 
Q 4122 884 3614 396 
Q 3106 -91 2203 -91 
Q 1297 -91 786 396 
Q 275 884 275 1747 
Q 275 2609 786 3096 
Q 1297 3584 2203 3584 
z
" transform="scale(0.015625)"/>
      <path id="DejaVuSans-Bold-64" d="M 2919 2988 
L 2919 4863 
L 4044 4863 
L 4044 0 
L 2919 0 
L 2919 506 
Q 2688 197 2409 53 
Q 2131 -91 1766 -91 
Q 1119 -91 703 423 
Q 288 938 288 1747 
Q 288 2556 703 3070 
Q 1119 3584 1766 3584 
Q 2128 3584 2408 3439 
Q 2688 3294 2919 2988 
z
M 2181 722 
Q 2541 722 2730 984 
Q 2919 1247 2919 1747 
Q 2919 2247 2730 2509 
Q 2541 2772 2181 2772 
Q 1825 2772 1636 2509 
Q 1447 2247 1447 1747 
Q 1447 1247 1636 984 
Q 1825 722 2181 722 
z
" transform="scale(0.015625)"/>
     </defs>
     <use xlink:href="#DejaVuSans-Bold-39" transform="translate(0 0.015625)"/>
     <use xlink:href="#DejaVuSans-Bold-20" transform="translate(69.580078 0.015625)"/>
     <use xlink:href="#DejaVuSans-Bold-56" transform="translate(104.394531 0.015625)"/>
     <use xlink:href="#DejaVuSans-Bold-20" transform="translate(181.787109 0.015625)"/>
     <use xlink:href="#DejaVuSans-Bold-73" transform="translate(216.601562 0.015625)"/>
     <use xlink:href="#DejaVuSans-Bold-65" transform="translate(276.123047 0.015625)"/>
     <use xlink:href="#DejaVuSans-Bold-74" transform="translate(343.945312 0.015625)"/>
     <use xlink:href="#DejaVuSans-Bold-74" transform="translate(391.748047 0.015625)"/>
     <use xlink:href="#DejaVuSans-Bold-69" transform="translate(439.550781 0.015625)"/>
     <use xlink:href="#DejaVuSans-Bold-6e" transform="translate(473.828125 0.015625)"/>
     <use xlink:href="#DejaVuSans-Bold-67" transform="translate(545.019531 0.015625)"/>
     <use xlink:href="#DejaVuSans-Bold-20" transform="translate(616.601562 0.015625)"/>
     <use xlink:href="#DejaVuSansDisplay-2014" transform="translate(651.416016 0.015625)"/>
     <use xlink:href="#DejaVuSans-Bold-20" transform="translate(751.416016 0.015625)"/>
     <use xlink:href="#DejaVuSans-Bold-56" transform="translate(786.230469 0.015625)"/>
     <use xlink:href="#DejaVuSans-Oblique-6f" transform="translate(864.580078 -16.390625) scale(0.7)"/>
     <use xlink:href="#DejaVuSans-Oblique-75" transform="translate(907.407227 -16.390625) scale(0.7)"/>
     <use xlink:href="#DejaVuSans-Oblique-74" transform="translate(951.772461 -16.390625) scale(0.7)"/>
     <use xlink:href="#DejaVuSans-Bold-20" transform="translate(981.953125 0.015625)"/>
     <use xlink:href="#DejaVuSans-Bold-76" transform="translate(1016.767578 0.015625)"/>
     <use xlink:href="#DejaVuSans-Bold-73" transform="translate(1081.953125 0.015625)"/>
     <use xlink:href="#DejaVuSans-Bold-20" transform="translate(1141.474609 0.015625)"/>
     <use xlink:href="#DejaVuSans-Bold-56" transform="translate(1176.289062 0.015625)"/>
     <use xlink:href="#DejaVuSans-Oblique-69" transform="translate(1254.638672 -16.390625) scale(0.7)"/>
     <use xlink:href="#DejaVuSans-Oblique-6e" transform="translate(1274.086914 -16.390625) scale(0.7)"/>
     <use xlink:href="#DejaVuSans-Bold-2c" transform="translate(1321.186523 0.015625)"/>
     <use xlink:href="#DejaVuSans-Bold-20" transform="translate(1359.174805 0.015625)"/>
     <use xlink:href="#DejaVuSans-Bold-61" transform="translate(1393.989258 0.015625)"/>
     <use xlink:href="#DejaVuSans-Bold-6c" transform="translate(1461.469727 0.015625)"/>
     <use xlink:href="#DejaVuSans-Bold-6c" transform="translate(1495.74707 0.015625)"/>
     <use xlink:href="#DejaVuSans-Bold-20" transform="translate(1530.024414 0.015625)"/>
     <use xlink:href="#DejaVuSans-Bold-6c" transform="translate(1564.838867 0.015625)"/>
     <use xlink:href="#DejaVuSans-Bold-6f" transform="translate(1599.116211 0.015625)"/>
     <use xlink:href="#DejaVuSans-Bold-61" transform="translate(1667.817383 0.015625)"/>
     <use xlink:href="#DejaVuSans-Bold-64" transform="translate(1735.297852 0.015625)"/>
     <use xlink:href="#DejaVuSans-Bold-20" transform="translate(1806.879883 0.015625)"/>
     <use xlink:href="#DejaVuSans-Bold-6c" transform="translate(1841.694336 0.015625)"/>
     <use xlink:href="#DejaVuSans-Bold-65" transform="translate(1875.97168 0.015625)"/>
     <use xlink:href="#DejaVuSans-Bold-76" transform="translate(1943.793945 0.015625)"/>
     <use xlink:href="#DejaVuSans-Bold-65" transform="translate(2008.979492 0.015625)"/>
     <use xlink:href="#DejaVuSans-Bold-6c" transform="translate(2076.801758 0.015625)"/>
     <use xlink:href="#DejaVuSans-Bold-73" transform="translate(2111.079102 0.015625)"/>
    </g>
   </g>
   <g id="legend_1">
    <g id="patch_5">
     <path d="M 55.59 100.48375 
L 192.26225 100.48375 
Q 194.02225 100.48375 194.02225 98.72375 
L 194.02225 35.02 
Q 194.02225 33.26 192.26225 33.26 
L 55.59 33.26 
Q 53.83 33.26 53.83 35.02 
L 53.83 98.72375 
Q 53.83 100.48375 55.59 100.48375 
z
" style="fill: #ffffff; opacity: 0.95; stroke: #cccccc; stroke-linejoin: miter"/>
    </g>
    <g id="text_20">
     <!-- Load -->
     <g transform="translate(111.980813 43.466625) scale(0.088 -0.088)">
      <defs>
       <path id="DejaVuSans-Bold-4c" d="M 588 4666 
L 1791 4666 
L 1791 909 
L 3903 909 
L 3903 0 
L 588 0 
L 588 4666 
z
" transform="scale(0.015625)"/>
      </defs>
      <use xlink:href="#DejaVuSans-Bold-4c"/>
      <use xlink:href="#DejaVuSans-Bold-6f" transform="translate(63.720703 0)"/>
      <use xlink:href="#DejaVuSans-Bold-61" transform="translate(132.421875 0)"/>
      <use xlink:href="#DejaVuSans-Bold-64" transform="translate(199.902344 0)"/>
     </g>
    </g>
    <g id="line2d_41">
     <path d="M 57.35 53.303375 
L 64.39 53.303375 
L 71.43 53.303375 
" style="fill: none; stroke-dasharray: 4,3; stroke-dashoffset: 0; stroke: #bdbdbd"/>
    </g>
    <g id="text_21">
     <!-- V$_{out}$ = V$_{in}$ -->
     <g transform="translate(78.47 56.383375) scale(0.088 -0.088)">
      <defs>
       <path id="DejaVuSans-3d" d="M 678 2906 
L 4684 2906 
L 4684 2381 
L 678 2381 
L 678 2906 
z
M 678 1631 
L 4684 1631 
L 4684 1100 
L 678 1100 
L 678 1631 
z
" transform="scale(0.015625)"/>
      </defs>
      <use xlink:href="#DejaVuSans-56" transform="translate(0 0.09375)"/>
      <use xlink:href="#DejaVuSans-Oblique-6f" transform="translate(69.365234 -16.3125) scale(0.7)"/>
      <use xlink:href="#DejaVuSans-Oblique-75" transform="translate(112.192383 -16.3125) scale(0.7)"/>
      <use xlink:href="#DejaVuSans-Oblique-74" transform="translate(156.557617 -16.3125) scale(0.7)"/>
      <use xlink:href="#DejaVuSans-20" transform="translate(186.738281 0.09375)"/>
      <use xlink:href="#DejaVuSans-3d" transform="translate(218.525391 0.09375)"/>
      <use xlink:href="#DejaVuSans-20" transform="translate(302.314453 0.09375)"/>
      <use xlink:href="#DejaVuSans-56" transform="translate(334.101562 0.09375)"/>
      <use xlink:href="#DejaVuSans-Oblique-69" transform="translate(403.466797 -16.3125) scale(0.7)"/>
      <use xlink:href="#DejaVuSans-Oblique-6e" transform="translate(422.915039 -16.3125) scale(0.7)"/>
     </g>
    </g>
    <g id="line2d_42">
     <path d="M 57.35 66.220125 
L 64.39 66.220125 
L 71.43 66.220125 
" style="fill: none; stroke: #9e9e9e; stroke-width: 1.4; stroke-linecap: square"/>
     <g>
      <use xlink:href="#m555fac6c4d" x="64.39" y="66.220125" style="fill: #9e9e9e; stroke: #9e9e9e"/>
     </g>
    </g>
    <g id="text_22">
     <!-- 0 mA -->
     <g transform="translate(78.47 69.300125) scale(0.088 -0.088)">
      <defs>
       <path id="DejaVuSans-6d" d="M 3328 2828 
Q 3544 3216 3844 3400 
Q 4144 3584 4550 3584 
Q 5097 3584 5394 3201 
Q 5691 2819 5691 2113 
L 5691 0 
L 5113 0 
L 5113 2094 
Q 5113 2597 4934 2840 
Q 4756 3084 4391 3084 
Q 3944 3084 3684 2787 
Q 3425 2491 3425 1978 
L 3425 0 
L 2847 0 
L 2847 2094 
Q 2847 2600 2669 2842 
Q 2491 3084 2119 3084 
Q 1678 3084 1418 2786 
Q 1159 2488 1159 1978 
L 1159 0 
L 581 0 
L 581 3500 
L 1159 3500 
L 1159 2956 
Q 1356 3278 1631 3431 
Q 1906 3584 2284 3584 
Q 2666 3584 2933 3390 
Q 3200 3197 3328 2828 
z
" transform="scale(0.015625)"/>
       <path id="DejaVuSans-41" d="M 2188 4044 
L 1331 1722 
L 3047 1722 
L 2188 4044 
z
M 1831 4666 
L 2547 4666 
L 4325 0 
L 3669 0 
L 3244 1197 
L 1141 1197 
L 716 0 
L 50 0 
L 1831 4666 
z
" transform="scale(0.015625)"/>
      </defs>
      <use xlink:href="#DejaVuSans-30"/>
      <use xlink:href="#DejaVuSans-20" transform="translate(63.623047 0)"/>
      <use xlink:href="#DejaVuSans-6d" transform="translate(95.410156 0)"/>
      <use xlink:href="#DejaVuSans-41" transform="translate(192.822266 0)"/>
     </g>
    </g>
    <g id="line2d_43">
     <path d="M 57.35 79.136875 
L 64.39 79.136875 
L 71.43 79.136875 
" style="fill: none; stroke: #1f77b4; stroke-width: 1.4; stroke-linecap: square"/>
     <g>
      <use xlink:href="#m1f9a233eda" x="64.39" y="79.136875" style="fill: #1f77b4; stroke: #1f77b4"/>
     </g>
    </g>
    <g id="text_23">
     <!-- 100 mA -->
     <g transform="translate(78.47 82.216875) scale(0.088 -0.088)">
      <use xlink:href="#DejaVuSans-31"/>
      <use xlink:href="#DejaVuSans-30" transform="translate(63.623047 0)"/>
      <use xlink:href="#DejaVuSans-30" transform="translate(127.246094 0)"/>
      <use xlink:href="#DejaVuSans-20" transform="translate(190.869141 0)"/>
      <use xlink:href="#DejaVuSans-6d" transform="translate(222.65625 0)"/>
      <use xlink:href="#DejaVuSans-41" transform="translate(320.068359 0)"/>
     </g>
    </g>
    <g id="line2d_44">
     <path d="M 57.35 92.053625 
L 64.39 92.053625 
L 71.43 92.053625 
" style="fill: none; stroke: #2ca02c; stroke-width: 1.4; stroke-linecap: square"/>
     <g>
      <use xlink:href="#mb358919d50" x="64.39" y="92.053625" style="fill: #2ca02c; stroke: #2ca02c"/>
     </g>
    </g>
    <g id="text_24">
     <!-- 500 mA -->
     <g transform="translate(78.47 95.133625) scale(0.088 -0.088)">
      <defs>
       <path id="DejaVuSans-35" d="M 691 4666 
L 3169 4666 
L 3169 4134 
L 1269 4134 
L 1269 2991 
Q 1406 3038 1543 3061 
Q 1681 3084 1819 3084 
Q 2600 3084 3056 2656 
Q 3513 2228 3513 1497 
Q 3513 744 3044 326 
Q 2575 -91 1722 -91 
Q 1428 -91 1123 -41 
Q 819 9 494 109 
L 494 744 
Q 775 591 1075 516 
Q 1375 441 1709 441 
Q 2250 441 2565 725 
Q 2881 1009 2881 1497 
Q 2881 1984 2565 2268 
Q 2250 2553 1709 2553 
Q 1456 2553 1204 2497 
Q 953 2441 691 2322 
L 691 4666 
z
" transform="scale(0.015625)"/>
      </defs>
      <use xlink:href="#DejaVuSans-35"/>
      <use xlink:href="#DejaVuSans-30" transform="translate(63.623047 0)"/>
      <use xlink:href="#DejaVuSans-30" transform="translate(127.246094 0)"/>
      <use xlink:href="#DejaVuSans-20" transform="translate(190.869141 0)"/>
      <use xlink:href="#DejaVuSans-6d" transform="translate(222.65625 0)"/>
      <use xlink:href="#DejaVuSans-41" transform="translate(320.068359 0)"/>
     </g>
    </g>
    <g id="line2d_45">
     <path d="M 129.598 53.303375 
L 136.638 53.303375 
L 143.678 53.303375 
" style="fill: none; stroke: #9467bd; stroke-width: 1.4; stroke-linecap: square"/>
     <g>
      <use xlink:href="#m6ba9868ff5" x="136.638" y="53.303375" style="fill: #9467bd; stroke: #9467bd"/>
     </g>
    </g>
    <g id="text_25">
     <!-- 1000 mA -->
     <g transform="translate(150.718 56.383375) scale(0.088 -0.088)">
      <use xlink:href="#DejaVuSans-31"/>
      <use xlink:href="#DejaVuSans-30" transform="translate(63.623047 0)"/>
      <use xlink:href="#DejaVuSans-30" transform="translate(127.246094 0)"/>
      <use xlink:href="#DejaVuSans-30" transform="translate(190.869141 0)"/>
      <use xlink:href="#DejaVuSans-20" transform="translate(254.492188 0)"/>
      <use xlink:href="#DejaVuSans-6d" transform="translate(286.279297 0)"/>
      <use xlink:href="#DejaVuSans-41" transform="translate(383.691406 0)"/>
     </g>
    </g>
    <g id="line2d_46">
     <path d="M 129.598 66.220125 
L 136.638 66.220125 
L 143.678 66.220125 
" style="fill: none; stroke: #ff7f0e; stroke-width: 1.4; stroke-linecap: square"/>
     <g>
      <use xlink:href="#m4f102a2291" x="136.638" y="66.220125" style="fill: #ff7f0e; stroke: #ff7f0e"/>
     </g>
    </g>
    <g id="text_26">
     <!-- 1500 mA -->
     <g transform="translate(150.718 69.300125) scale(0.088 -0.088)">
      <use xlink:href="#DejaVuSans-31"/>
      <use xlink:href="#DejaVuSans-35" transform="translate(63.623047 0)"/>
      <use xlink:href="#DejaVuSans-30" transform="translate(127.246094 0)"/>
      <use xlink:href="#DejaVuSans-30" transform="translate(190.869141 0)"/>
      <use xlink:href="#DejaVuSans-20" transform="translate(254.492188 0)"/>
      <use xlink:href="#DejaVuSans-6d" transform="translate(286.279297 0)"/>
      <use xlink:href="#DejaVuSans-41" transform="translate(383.691406 0)"/>
     </g>
    </g>
    <g id="line2d_47">
     <path d="M 129.598 79.136875 
L 136.638 79.136875 
L 143.678 79.136875 
" style="fill: none; stroke: #d62728; stroke-width: 1.4; stroke-linecap: square"/>
     <g>
      <use xlink:href="#m51a3110df8" x="136.638" y="79.136875" style="fill: #d62728; stroke: #d62728"/>
     </g>
    </g>
    <g id="text_27">
     <!-- 2000 mA -->
     <g transform="translate(150.718 82.216875) scale(0.088 -0.088)">
      <use xlink:href="#DejaVuSans-32"/>
      <use xlink:href="#DejaVuSans-30" transform="translate(63.623047 0)"/>
      <use xlink:href="#DejaVuSans-30" transform="translate(127.246094 0)"/>
      <use xlink:href="#DejaVuSans-30" transform="translate(190.869141 0)"/>
      <use xlink:href="#DejaVuSans-20" transform="translate(254.492188 0)"/>
      <use xlink:href="#DejaVuSans-6d" transform="translate(286.279297 0)"/>
      <use xlink:href="#DejaVuSans-41" transform="translate(383.691406 0)"/>
     </g>
    </g>
    <g id="line2d_48">
     <path d="M 129.598 92.053625 
L 136.638 92.053625 
L 143.678 92.053625 
" style="fill: none; stroke: #8c564b; stroke-width: 1.4; stroke-linecap: square"/>
     <g>
      <use xlink:href="#mac0f3d634c" x="136.638" y="92.053625" style="fill: #8c564b; stroke: #8c564b"/>
     </g>
    </g>
    <g id="text_28">
     <!-- 4000 mA -->
     <g transform="translate(150.718 95.133625) scale(0.088 -0.088)">
      <use xlink:href="#DejaVuSans-34"/>
      <use xlink:href="#DejaVuSans-30" transform="translate(63.623047 0)"/>
      <use xlink:href="#DejaVuSans-30" transform="translate(127.246094 0)"/>
      <use xlink:href="#DejaVuSans-30" transform="translate(190.869141 0)"/>
      <use xlink:href="#DejaVuSans-20" transform="translate(254.492188 0)"/>
      <use xlink:href="#DejaVuSans-6d" transform="translate(286.279297 0)"/>
      <use xlink:href="#DejaVuSans-41" transform="translate(383.691406 0)"/>
     </g>
    </g>
   </g>
  </g>
 </g>
 <defs>
  <clipPath id="p2ba2839ee3">
   <rect x="49.43" y="28.86" width="457.63" height="255.52"/>
  </clipPath>
 </defs>
</svg>
